<?xml version="1.0" encoding="utf-8"?>
<!-- Generator: Adobe Illustrator 26.2.1, SVG Export Plug-In . SVG Version: 6.00 Build 0)  -->
<svg version="1.1" id="Layer_1" xmlns="http://www.w3.org/2000/svg" xmlns:xlink="http://www.w3.org/1999/xlink" x="0px" y="0px"
	 viewBox="0 0 134 137" style="enable-background:new 0 0 134 137;" xml:space="preserve">
<style type="text/css">
	.st0{fill-rule:evenodd;clip-rule:evenodd;fill:#0EA5E9;}
</style>
<g>
	<path class="st0" d="M125.2,34.9c-2.9-5.1-6.5-9.9-10.8-14.3c-26.2-26.5-68.6-26.5-94.7,0C-6.5,47-6.5,90,19.7,116.4
		c26.2,26.5,68.6,26.5,94.7,0c4.3-4.4,7.9-9.2,10.8-14.3H98C80.2,118.9,52.3,118.6,35,101c-17.7-17.9-17.7-47.1,0-65
		C52.3,18.4,80.2,18.1,98,34.9H125.2z"/>
	<path class="st0" d="M79.5,73v18l50.8,0c0.6-1.6,1.1-3.3,1.5-5c1.2-4.4,1.9-8.7,2.1-13L79.5,73z"/>
	<path class="st0" d="M133.9,64c-0.4-6.2-1.7-12.3-3.7-18l-50.8,0v18L133.9,64z"/>
</g>
</svg>
