<?xml version="1.0" encoding="UTF-8" standalone="no"?>
<!-- Generator: Adobe Illustrator 26.2.1, SVG Export Plug-In . SVG Version: 6.00 Build 0)  -->

<svg
   version="1.1"
   id="Layer_1"
   x="0px"
   y="0px"
   viewBox="0 0 16 16"
   xml:space="preserve"
   width="16"
   height="16"
   sodipodi:docname="ceno-icon.svg"
   inkscape:version="1.4.2 (ebf0e940d0, 2025-05-08)"
   xmlns:inkscape="http://www.inkscape.org/namespaces/inkscape"
   xmlns:sodipodi="http://sodipodi.sourceforge.net/DTD/sodipodi-0.dtd"
   xmlns="http://www.w3.org/2000/svg"
   xmlns:svg="http://www.w3.org/2000/svg"><sodipodi:namedview
   id="namedview1"
   pagecolor="#ffffff"
   bordercolor="#000000"
   borderopacity="0.25"
   inkscape:showpageshadow="true"
   inkscape:pageopacity="0.0"
   inkscape:pagecheckerboard="true"
   inkscape:deskcolor="#d1d1d1"
   labelstyle="default"
   inkscape:antialias-rendering="true"
   inkscape:clip-to-page="false"
   inkscape:zoom="23.375"
   inkscape:cx="8"
   inkscape:cy="8"
   inkscape:window-width="1920"
   inkscape:window-height="1043"
   inkscape:window-x="0"
   inkscape:window-y="1068"
   inkscape:window-maximized="1"
   inkscape:current-layer="Layer_1" /><defs
   id="defs33105" />
<style
   type="text/css"
   id="style33084">
	.st0{fill:#0369A1;}
	.st1{fill-rule:evenodd;clip-rule:evenodd;fill:#0EA5E9;}
</style>


<g
   id="g33096"
   transform="matrix(0.11962617,0,0,0.11795061,-0.00598131,-0.27423517)">
	<path
   class="st1"
   d="m 125.2,36.5 c -2.9,-5.1 -6.5,-9.9 -10.8,-14.3 -26.2,-26.5 -68.6,-26.5 -94.7,0 -26.2,26.5 -26.2,69.4 0,95.9 26.2,26.5 68.6,26.5 94.7,0 4.3,-4.4 7.9,-9.2 10.8,-14.3 H 97.9 C 80.1,120.6 52.2,120.2 34.8,102.7 17.1,84.8 17.1,55.6 34.8,37.7 52.2,20.1 80.1,19.8 97.9,36.6 h 27.3 z"
   id="path33090"
   style="display:inline" />
	<path
   class="st1"
   d="m 79.4,74.6 v 18 h 50.8 c 0.6,-1.6 1.1,-3.3 1.5,-5 1.2,-4.4 1.9,-8.7 2.1,-13 z"
   id="path33092"
   style="fill:#ea580c;fill-opacity:1" />
	<path
   class="st1"
   d="m 133.8,65.6 c -0.4,-6.2 -1.7,-12.3 -3.7,-18 H 79.3 v 18 z"
   id="path33094" />
</g>


</svg>
